<svg id="Layer_1" enable-background="new 0 0 512 512" height="512" viewBox="0 0 512 512" width="512" xmlns="http://www.w3.org/2000/svg"><g><path d="m307.334 288.329c-6.357-4.532-11.12-7.329-13.334-7.329-45 0-88.052-55.663-102.858-76.875-6.305-9.032-13.63-17.089-21.777-24.041-9.12-7.783-10.049-21.482-2.104-30.461 7.226-8.167 13.501-17.244 18.634-27.081 13.692-26.241 54.105-83.542 102.105-83.542 6.08 0 13.439-3.316 21.411-8.348-16.445-6.853-34.482-10.652-53.411-10.652-53.601 0-100.108 30.342-123.299 74.785-10.067 19.293-27.967 33.283-49.094 38.499-39.452 9.741-63.607 22.826-63.607 37.216 0 16.469 31.632 31.232 81.631 41.225 16.415 3.281 30.731 13.019 40.312 26.745 25.121 35.987 66.84 59.53 114.057 59.53 18.263 0 35.434-3.327 51.334-9.671z" fill="#c6e1f2"/><path d="m98.002 408.11c-2.123 0-4.281-.34-6.404-1.058-10.465-3.536-16.081-14.886-12.545-25.35l22-65.105c3.536-10.464 14.885-16.083 25.35-12.544 10.465 3.536 16.081 14.886 12.545 25.35l-22 65.105c-2.819 8.341-10.603 13.602-18.946 13.602zm323.595-1.229c10.428-3.644 15.928-15.05 12.284-25.478l-29-83c-3.645-10.429-15.053-15.925-25.478-12.284-10.428 3.644-15.928 15.05-12.284 25.478l29 83c2.881 8.245 10.614 13.409 18.88 13.409 2.189-.001 4.415-.363 6.598-1.125zm-145.597 6.119v-40c0-11.046-8.954-20-20-20s-20 8.954-20 20v40c0 11.046 8.954 20 20 20s20-8.954 20-20zm47.551-109.92c9.985-4.723 14.252-16.646 9.529-26.631-4.724-9.986-16.648-14.25-26.631-9.529-15.545 7.352-32.518 11.08-50.449 11.08-38.867 0-75.375-19.057-97.657-50.979-12.743-18.254-31.491-30.651-52.792-34.909-38.742-7.743-56.714-16.628-63.296-21.595 5.455-4.09 18.894-11.088 46.146-17.817 26.728-6.599 49.338-24.336 62.032-48.664 20.61-39.498 61.061-64.036 105.567-64.036s84.957 24.538 105.567 64.038c12.694 24.327 35.305 42.064 62.032 48.664 25.738 6.354 39.155 12.95 45.162 17.11-12.364 6.732-57.648 22.188-212.761 22.188-12.144 0-24.339-.219-36.25-.652-11.058-.389-20.312 8.223-20.713 19.261-.4 11.039 8.223 20.312 19.262 20.713 12.391.45 25.076.678 37.701.678 71.2 0 128.375-3.263 169.938-9.698 24.106-3.732 42.304-8.423 55.631-14.339 25.152-11.166 30.431-26.536 30.431-37.463 0-25.014-25.779-43.539-78.813-56.633-15.591-3.85-28.77-14.177-36.157-28.334-27.529-52.759-81.569-85.533-141.03-85.533s-113.501 32.774-141.03 85.533c-7.388 14.158-20.566 24.485-36.157 28.334-53.034 13.094-78.813 31.619-78.813 56.633 0 27.796 31.962 47.696 97.711 60.837 11.138 2.226 21.022 8.825 27.833 18.58 29.759 42.632 78.527 68.083 130.456 68.083 23.891 0 46.618-5.02 67.551-14.92zm-5.314-152.978c11.025-.684 19.408-10.175 18.725-21.199-.685-11.025-10.198-19.411-21.199-18.724-19.763 1.225-39.311 1.821-59.763 1.821-20.522 0-40.959-.632-60.742-1.879-10.984-.691-20.523 7.678-21.218 18.702s7.678 20.524 18.702 21.219c20.617 1.299 41.901 1.958 63.258 1.958 21.286 0 41.644-.621 62.237-1.898z" fill="#0023c4"/><path d="m281 487c0 13.807-11.193 25-25 25s-25-11.193-25-25 11.193-25 25-25 25 11.193 25 25zm161-57c-13.807 0-25 11.193-25 25s11.193 25 25 25 25-11.193 25-25-11.193-25-25-25zm-370 0c-13.807 0-25 11.193-25 25s11.193 25 25 25 25-11.193 25-25-11.193-25-25-25z" fill="#ff5cf3"/></g></svg>