<svg id="Layer_1" enable-background="new 0 0 512.016 512.016" height="512" viewBox="0 0 512.016 512.016" width="512" xmlns="http://www.w3.org/2000/svg"><g><path d="m83.009 297.555c0-91.12 133-167.947 133-167.947 102.797-62.154 209.912-93.772 275.547-108.715l.453-.884s-175 21.44-339 120.6c0 0-133 76.827-133 167.947 0 0-2.82 93.397 165.222 49.902-104.281 7.309-102.222-60.903-102.222-60.903z" fill="#c6e1f2"/><path d="m19.982 512.01c-9.961 0-18.584-7.431-19.827-17.57-1.343-10.964 6.456-20.94 17.419-22.284.842-.105 43.935-5.582 105.906-22.763 57.198-15.857 142.693-45.228 225.178-95.101.114-.069.229-.137.344-.204.307-.178 32.237-18.809 63.494-47.694 27.148-25.087 59.51-63.31 59.51-102.935 0-.362-.013-.238 0-.459-.049-1.894-.903-17.074-15.519-27.995-13.901-10.388-50.559-23.925-139.887 2.096-.192.056-15.126 4.415-36.883 13.501-10.192 4.256-21.906-.556-26.163-10.748s.555-21.906 10.748-26.163c24.063-10.05 40.483-14.814 41.171-15.012 81.676-23.792 140.945-22.066 176.099 5.15 24.664 19.094 30.727 46.457 30.435 59.895-.099 43.528-24.644 88.137-72.957 132.595-33.522 30.847-66.708 50.464-69.845 52.292-86.625 52.35-176.069 83.031-235.871 99.557-64.93 17.943-109.049 23.463-110.895 23.689-.826.104-1.647.153-2.457.153zm452.034-309.154c0 .001 0 .001 0 0zm-364.939 187.119c-32.244.001-57.869-7.264-76.632-21.79-24.665-19.095-30.728-46.458-30.435-59.896.099-43.528 24.644-88.137 72.957-132.595 33.522-30.847 66.708-50.464 69.845-52.292 86.625-52.35 176.069-83.031 235.871-99.557 64.929-17.942 109.048-23.462 110.894-23.688 10.965-1.345 20.94 6.456 22.284 17.419s-6.456 20.94-17.419 22.284c-.842.105-43.935 5.582-105.906 22.763-57.198 15.857-142.693 45.228-225.178 95.101-.114.069-.229.137-.344.204-.307.178-32.237 18.809-63.494 47.694-27.148 25.087-59.51 63.31-59.51 102.935 0 .362.013.238 0 .459.049 1.894.903 17.074 15.519 27.995 13.9 10.387 50.559 23.925 139.887-2.096 1.007-.292 97.079-28.652 161.446-93.044 7.809-7.813 20.473-7.814 28.284-.006 7.812 7.809 7.815 20.472.006 28.284-71.825 71.851-174.283 101.94-178.609 103.185-38.081 11.094-71.3 16.639-99.466 16.641zm-88.068-285.967c0 13.807 11.193 25 25 25s25-11.193 25-25-11.193-25-25-25-25 11.193-25 25zm397 368c0 13.807 11.193 25 25 25s25-11.193 25-25-11.193-25-25-25-25 11.193-25 25zm46-87c0 13.807 11.193 25 25 25s25-11.193 25-25-11.193-25-25-25-25 11.193-25 25z" fill="#0023c4"/><path d="m141.009 276.008c-5.117 0-10.234-1.952-14.139-5.855-7.812-7.809-7.815-20.472-.006-28.284 18.885-18.893 41.649-36.591 67.66-52.604 9.406-5.791 21.725-2.859 27.516 6.546 5.791 9.406 2.86 21.726-6.546 27.516-23.356 14.379-43.658 30.132-60.34 46.82-3.905 3.908-9.025 5.861-14.145 5.861zm-28-251c0 13.807 11.193 25 25 25s25-11.193 25-25-11.193-25-25-25-25 11.193-25 25zm179 462c0 13.807 11.193 25 25 25s25-11.193 25-25-11.193-25-25-25-25 11.193-25 25z" fill="#ff5cf3"/></g></svg>